<?xml version="1.0" encoding="utf-8"?>
<!-- Generator: Adobe Illustrator 22.0.1, SVG Export Plug-In . SVG Version: 6.00 Build 0)  -->
<svg version="1.1" id="Laag_1" xmlns="http://www.w3.org/2000/svg" xmlns:xlink="http://www.w3.org/1999/xlink" x="0px" y="0px"
	 viewBox="0 0 127.7 160" style="enable-background:new 0 0 127.7 160; color:#322E2D;" xml:space="preserve">
<path d="M120.3,116.2L95.4,91.3c7.6-9,12.2-20.6,12.2-33.3c0-28.5-23.2-51.8-51.8-51.8C34.3,6.2,4,22.3,4,58
	c0,28.5,23.2,51.8,51.8,51.8c12.3,0,23.6-4.3,32.4-11.5l25,25c1,1,2.3,1.5,3.5,1.5c1.3,0,2.6-0.5,3.5-1.5
	C122.2,121.3,122.2,118.2,120.3,116.2z M55.8,103.8C30.6,103.8,10,83.2,10,58c0-31.6,26.8-45.8,45.8-45.8
	c25.2,0,45.8,20.5,45.8,45.8C101.6,83.2,81,103.8,55.8,103.8z"/>
<path d="M79,39H70v-1.9c0-3.2-1.3-5.7-2.9-5.7H43.6c-1.6,0-2.9,2.6-2.9,5.7V39h-8.9c-3.2,0-5.7,2.6-5.7,5.7v31.3
	c0,3.2,2.6,5.7,5.7,5.7H79c3.2,0,5.7-2.6,5.7-5.7V44.7C84.7,41.5,82.2,39,79,39z M55.3,73.1c-6.9,0-12.5-5.6-12.5-12.5
	c0-6.9,5.6-12.5,12.5-12.5c6.9,0,12.5,5.6,12.5,12.5C67.8,67.5,62.2,73.1,55.3,73.1z"/>
</svg>
