<?xml version="1.0" encoding="utf-8"?>
<!-- Generator: Adobe Illustrator 22.1.0, SVG Export Plug-In . SVG Version: 6.00 Build 0)  -->
<svg version="1.1" id="Layer_1" xmlns="http://www.w3.org/2000/svg" xmlns:xlink="http://www.w3.org/1999/xlink" x="0px" y="0px"
	 viewBox="0 0 35 35" style="enable-background:new 0 0 35 35;" xml:space="preserve">
<style type="text/css">
	.st0{fill:#BB0A21;stroke:#BB0A21;stroke-width:0.75;stroke-miterlimit:10;}
</style>
<path class="st0" d="M24.6,23.6c-0.6-1-1.5-1.7-2.7-2.1c-1.1-0.3-2.1-0.3-3,0.1c-0.2,0.3-0.5,0.5-0.7,0.7c0,0.2,0.2,0.3,0.3,0.3
	c0.1,0,0.1,0,0.2,0l0,0h0.2l0,0c0.7-0.1,1.7,0.1,2.5,0.3c0.9,0.3,1.7,0.7,2.3,1.2l0,0l0.1,0.1l0,0c0.1,0.1,0.1,0.1,0.2,0.1
	c0.3,0.1,0.5-0.1,0.6-0.3C24.7,23.9,24.7,23.7,24.6,23.6z"/>
<path class="st0" d="M21.6,16.5c-0.1,0.2-0.1,0.5-0.2,0.7c-0.1,0.1-0.1,0.3-0.2,0.4c0.3-0.1,0.5-0.2,0.6-0.4
	C22,17,21.8,16.7,21.6,16.5z"/>
<g>
	<path class="st0" d="M25.2,19L25.2,19c-0.7-0.2-1.1-0.7-1-1.1l0,0c0.1-0.4,0.8-0.6,1.4-0.4l0,0c0.7,0.2,1.1,0.7,1,1.1l0,0
		C26.5,19.1,25.9,19.2,25.2,19z"/>
</g>
<path class="st0" d="M24.5,12.6c-0.9-0.3-1.8-0.5-2.6-0.6c0,0.3,0,0.6,0,1c0.7,0.1,1.5,0.3,2.3,0.5c3.8,1.2,5.8,3.1,5.8,3.1
	s-1.2,5.4-3.8,7.6c-3.1,2.7-6,2.3-6,2.3s-1.9-1-3.1-3.4c-0.3,0.2-0.5,0.4-0.7,0.5c1.3,2.7,3.5,3.8,3.5,3.8s3.3,0.4,6.8-2.6
	c3-2.5,4.3-8.7,4.3-8.7S28.9,13.9,24.5,12.6z"/>
<path class="st0" d="M20.2,6.2c0,0-3.5-0.9-8.3,0.2C7,7.5,4.3,9.8,4.3,9.8s1,6.4,4.1,10s7.3,3.4,7.3,3.4s3.4-1.4,5.2-6.3
	C22.3,12.9,20.2,6.2,20.2,6.2z M20.1,16.6c-1.5,4.3-4.6,5.6-4.6,5.6s-3.8,0.1-6.5-3c-2.8-3.2-3.6-8.9-3.6-8.9s2.5-2,6.8-3
	c4.4-1,7.5-0.2,7.5-0.2S21.4,13,20.1,16.6z"/>
<g>
	<path class="st0" d="M10.7,13.4L10.7,13.4c-0.8,0.2-1.5-0.1-1.6-0.5l0,0c-0.1-0.5,0.4-1,1.2-1.1l0,0c0.8-0.2,1.5,0.1,1.6,0.5l0,0
		C12,12.7,11.4,13.2,10.7,13.4z"/>
</g>
<g>
	<path class="st0" d="M16.1,12.2L16.1,12.2c-0.8,0.2-1.5-0.1-1.6-0.5l0,0c-0.1-0.5,0.4-1,1.2-1.1l0,0c0.8-0.2,1.5,0.1,1.6,0.5l0,0
		C17.4,11.5,16.8,12,16.1,12.2z"/>
</g>
<path class="st0" d="M18.1,16.3c-0.1-0.3-0.4-0.5-0.6-0.4c-0.1,0-0.2,0.1-0.2,0.1l0,0l0,0l0,0l-0.2,0.1c0,0,0,0-0.1,0
	c-0.7,0.5-1.6,0.8-2.6,1c-0.9,0.2-1.9,0.3-2.7,0.2h-0.1h-0.2l0,0l0,0l0,0c-0.1,0-0.2,0-0.2,0c-0.3,0.1-0.5,0.4-0.4,0.7
	c0,0.2,0.1,0.3,0.3,0.4c0,0,0.1,0,0.1,0.1c0,0,0,0,0.1,0c1.1,0.6,2.3,0.7,3.7,0.4c1.3-0.3,2.4-1,3.1-2c0,0,0-0.1,0.1-0.1
	c0,0,0,0,0-0.1l0,0C18.1,16.6,18.1,16.5,18.1,16.3z"/>
</svg>
